<svg xmlns="http://www.w3.org/2000/svg" viewBox="0 0 16 16">
  <path fill="currentColor" d="M9 10.5a1 1 0 1 1-2 0 1 1 0 0 1 2 0"/>
  <path fill="currentColor" d="M9.416 4.33a2.1 2.1 0 0 0-1.195-.33 2.2 2.2 0 0 0-.94.183 2.1 2.1 0 0 0-.727.53 2.2 2.2 0 0 0-.457.807 1.65 1.65 0 0 0-.073.982c.076.322.347.498.63.498.378 0 .652-.32.75-.632.031-.098.074-.19.129-.274a.77.77 0 0 1 .263-.247.8.8 0 0 1 .375-.087.73.73 0 0 1 .546.197q.191.196.191.505c0 .134-.034.25-.101.347a1.5 1.5 0 0 1-.238.267c-.091.08-.184.158-.279.233a2.3 2.3 0 0 0-.274.27c-.085.1-.156.217-.214.354a1.2 1.2 0 0 0-.087.47v.196a.65.65 0 0 0 .654.654.65.65 0 0 0 .654-.654v-.11a.6.6 0 0 1 .055-.26.9.9 0 0 1 .156-.234 2 2 0 0 1 .231-.214l.28-.227c.1-.082.196-.177.288-.285.092-.107.17-.232.236-.375s.099-.31.099-.504A1.55 1.55 0 0 0 9.416 4.33"/>
  <path fill="currentColor" fill-rule="evenodd" d="M8 14A6 6 0 1 0 8 2a6 6 0 0 0 0 12m0-1.5a4.5 4.5 0 1 0 0-9 4.5 4.5 0 0 0 0 9" clip-rule="evenodd"/>
</svg>

